# xmcd CD Database Entry
#
# Track frame offsets:
# 150
# 22782
# 46037
# 67716
# 86589
# 105914
# 127307
# 149354
# 167068
# 190272
# 214196
# 227783
#
# Disc length: 3340 seconds
#
# Revision: 1
# Processed by: cddbd v1.4PL0 Copyright (c) Steve Scherf et al.
# Submitted via: tcd 2.0b
#
DISCID=990d0a0c
DTITLE=Chris Rea/King Of The Beach
DYEAR=1900
DGENRE=
TTITLE0=King Of  The beach
TTITLE1=All Summer Long
TTITLE2=Sail Away
TTITLE3=Still Beautiful
TTITLE4=The Bones of Angels
TTITLE5=Guitar Street
TTITLE6=Who Do You Love
TTITLE7=The Memory Of A Good Friend
TTITLE8=Sandwriting
TTITLE9=Tamatave
TTITLE10=God Gave Me An Angel
TTITLE11=Waiting For A Blue Sky
EXTD=
EXTT0=
EXTT1=
EXTT2=
EXTT3=
EXTT4=
EXTT5=
EXTT6=
EXTT7=
EXTT8=
EXTT9=
EXTT10=
EXTT11=
PLAYORDER=
